<?xml version="1.0" encoding="utf-8"?>
<!-- Generator: Adobe Illustrator 28.2.0, SVG Export Plug-In . SVG Version: 6.00 Build 0)  -->
<svg version="1.1" id="Layer_1" xmlns="http://www.w3.org/2000/svg" xmlns:xlink="http://www.w3.org/1999/xlink" x="0px" y="0px"
	 viewBox="0 0 1783.4 352.9" style="enable-background:new 0 0 1783.4 352.9;" xml:space="preserve">
<style type="text/css">
	.st0{fill:#009CA5;}
	.st1{fill:#333333;}
	.st2{font-family:'Poppins-Bold';}
	.st3{font-size:57.55px;}
	.st4{font-family:'Poppins-Regular';}
	.st5{fill:#FFFFFF;}
	.st6{fill-rule:evenodd;clip-rule:evenodd;fill:#009CA5;}
	.st7{fill-rule:evenodd;clip-rule:evenodd;fill:#FFFFFF;}
	.st8{font-family:'Poppins-Light';}
	.st9{font-size:35px;}
</style>
<g>
	<path class="st0" d="M284.7,144.5c0.2-0.2,0.5-0.5,0.7-0.7c8.1-8,8.3-16.8,0.4-25c-16.3-17.1-33.4-33.4-50.3-49.9
		c-7.4-7.1-19.3-7.1-26.6,0.1c-16.4,16.1-32.6,32.3-48.5,48.8c-7.4,7.7-6.9,17.4,0.9,25.2c13.5,13.5,44.3,45.3,44.3,45.3l-19.2,19.2
		c0,0-32.3-29.8-47-44.4c-3.9-3.8-7.8-7.6-11.5-11.6c-10.6-11.4-8.6-35.1,2.2-45.6c23.1-22.5,45.5-45.7,68.3-68.6
		c13.8-13.9,32.4-14,46.3-0.2c23.4,23.3,46.8,46.7,70.2,70c6.1,6.1,8.8,13.2,9.6,21.8c0.8,8.3-0.4,15.6-5.3,22.2
		c-1.2,1.6-2.6,3.1-4,4.6c-26.2,26.4-81.6,81.3-81.6,81.3c-9.8-0.2-30.9-0.5-40.6-0.5C192.9,236.5,258.5,170.7,284.7,144.5"/>
	<g>
		<path class="st0" d="M215.2,160c-2.9-5.2-3.8-11.8-2.9-17.4c1.5-8.9,5.9-16.4,12.3-22.6c8.2-7.8,14-16.9,16.9-28.2
			c0.2,2.7,0.9,5.5,0.5,8.2c-0.9,7.1-3.9,13.4-8.5,19c-5.3,6.5-10.7,13.2-11.9,21.8c-0.3,2-0.1,5.7-0.2,7.7c-0.1,1.2,0,2.5-0.5,3.7
			C219.8,155.1,218,157.1,215.2,160"/>
		<path class="st0" d="M204,165.6c2.2-0.8,4.4-1.4,6.4-2.3c9-3.9,13.5-12.8,13-22.6c-0.2-4.7,1.7-8.2,4.1-11.9
			c7.2,8.3,8.3,26.9,1.4,34.9c-0.9,1.1-2.8,1.9-4.3,2C218,165.6,211,165.6,204,165.6"/>
		<path class="st0" d="M221,122.6c-0.9,1.2-2.1,2.8-3.3,4.3c-9.1-8.3-17-24.9-13.4-34.4c1.9,4.8,3.3,10.2,6.1,15
			C213.2,112.3,217.2,117.8,221,122.6"/>
		<path class="st0" d="M222.8,94.7c4,0.1,6.8,2.8,6.7,6.8c0,4-2.9,6.8-6.9,6.8c-3.9,0-7-3-7.1-6.8C215.5,97.6,218.7,94.6,222.8,94.7
			"/>
		<path class="st0" d="M225.7,165.6c2.9-0.3,4.3-2.8,5-3.9c3.6,2.3,5.2,2.9,11.4,3.9H225.7L225.7,165.6z"/>
	</g>
	<path class="st0" d="M375.7,279.3c-2.8-6.9-5.5-13.8-8.3-20.7c-0.1-0.2-0.1-0.2-0.3-0.2c-1.4,0-2.7,0-4.1,0c-0.2,0-0.3,0.1-0.3,0.2
		c-2.6,6.7-5.2,13.4-7.8,20c-0.1,0.3-0.2,0.6-0.4,0.9c0.1,0,0.1,0,0.1,0c1.4,0,2.8,0,4.2,0c0.2,0,0.2-0.1,0.3-0.2
		c0.5-1.5,1.1-2.9,1.6-4.4c0.1-0.2,0.1-0.2,0.3-0.2c2.7,0,5.3,0,8,0c0.2,0,0.3,0.1,0.3,0.2c0.6,1.5,1.1,2.9,1.7,4.4
		c0.1,0.2,0.2,0.2,0.4,0.2c1.2,0,2.4,0,3.6,0h0.8C375.8,279.4,375.7,279.4,375.7,279.3L375.7,279.3z M362.2,271.2
		c1-2.6,1.9-5.2,2.9-7.9c1,2.6,1.9,5.2,2.9,7.9H362.2L362.2,271.2z M371.1,305.8c-0.9,0.2-1.8,0.7-2.9,1.5c-1.2,0.9-2.1,1.9-3,3
		c-0.6,0.9-1.2,1.5-2,2c-0.9,0.6-22.7,0.9-23.9,0.9h-1.6v-1.5c0-1.7-0.4-3.1-1.3-4c-0.9-1-2.2-1.5-4-1.5c-1.1,0-2.2,0.2-3.2,0.5
		c-0.9,0.3-1.8,0.8-2.9,1.5c-0.4,0.3-1.6,1.1-3.4,2.4c-1.1,0.8-2.4,2-4.1,2l-0.6-0.5c-0.8-1-1.4-2.4-1.9-4.1l-0.8,1.2
		c0.1,0.5,0.2,0.9,0.2,1.3c0,0.4,0.1,0.8,0.1,1.1c0,0.9-0.4,1.5-1.1,1.8c-0.5,0.2-1.2,0.3-2.3,0.3h-19.9c-2-0.3-3.3-1.9-3.6-2.2
		c-2-1.8-3.5-3.1-4.4-3.7c-1.8-1.3-3.4-2-4.7-2s-2.5,0.4-3.4,1.3c-0.6,0.6-1.1,1.4-1.5,2.3c0.7-0.1,1.4-0.1,2-0.1
		c1.1,0,2.2,0.2,3.2,0.6c0.9,0.3,2,0.9,3.1,1.6c0.9,0.6,2,1.4,3.4,2.4h-38.4c-0.4,0-0.9-0.7-1.3-2c-0.3-0.9-0.6-2.3-0.9-4.1
		l-0.6-3.4c-0.2-0.8-0.4-1.6-0.5-2.4c-0.1-0.8-0.3-1.5-0.4-2.4c-0.4,0.5-0.7,0.9-1,1.4c-0.3,0.5-0.4,1-0.4,1.5c0,0.1,0,0.4,0.1,0.8
		c0.1,0.5,0.1,0.7,0.2,0.8c-2.2,1-4,2.2-5.5,3.6c-1.5,1.4-2.2,2.6-2.2,3.8c0,0.3,0.5,0.6,1.5,0.8c1,0.2,2.3,0.3,3.8,0.3
		c0.7,0,1.3-0.2,1.9-0.6c0.6-0.4,1.1-1,1.5-1.7c0.3,1.9,0.8,3.5,1.3,4.7c0.7,1.6,1.6,2.4,2.5,2.4h64.6v-0.1c1.1,0,1.9-0.1,2.4-0.2
		c0.5-0.2,1.1-0.5,1.6-1c0.6,0.4,1.2,0.7,1.7,0.9c0.1,0,0.1,0.1,0,0.1h21c1.5,0,23.4-0.2,24.2-0.5c0.8-0.4,1.6-1,2.3-1.9
		c1,0.8,2.1,1.4,3.4,1.9c1.1,0.4,2.1,0.6,3,0.6h2v-3.4c0-0.9-0.4-2.1-1.1-3.6C372.7,308.4,372,307.1,371.1,305.8L371.1,305.8z
		 M241.8,309.3c-0.6,0-1.1,0-1.5-0.1c-0.4-0.1-0.7-0.2-1-0.3c0.4-0.7,1-1.3,1.6-1.7c0.7-0.4,1.6-0.9,2.7-1.3l0.4,2.1
		C243.3,308.9,242.6,309.3,241.8,309.3L241.8,309.3z M333.5,312.7c-0.6,0.2-1.7,0.4-3.1,0.4h-9.1c1.5-0.8,2.9-1.5,4.4-2.2
		c1.9-0.9,3.4-1.3,4.8-1.3c1.1,0,2,0.2,2.8,0.5c0.8,0.4,1.2,0.9,1.2,1.5C334.5,312.1,334.2,312.5,333.5,312.7L333.5,312.7z
		 M371.9,312.9c-0.8-0.1-1.6-0.3-2.4-0.8c-0.9-0.4-1.5-0.9-2-1.4c0.4-0.6,0.7-1.1,1-1.4c0.4-0.4,1-0.7,1.6-0.9
		c0.5,0.6,0.9,1.3,1.2,1.9c0.4,0.7,0.6,1.5,0.8,2.2L371.9,312.9L371.9,312.9z M335.9,263.1c0,0.1,0.1,0.1,0.1,0.2
		c0.9,3.7,1.9,7.4,2.8,11.1c0.4,1.7,0.9,3.4,1.3,5c0,0.2,0.1,0.2,0.3,0.2c0.3,0,0.6,0,0.9,0h3c1.4-5.5,2.8-11,4.1-16.5
		c0,0,0,0,0.1,0v16.5h3.9v-21.2c0,0-0.1,0-0.1,0c-2,0-4.1,0-6.1,0c-0.2,0-0.2,0.1-0.2,0.2c-0.9,3.5-1.8,6.9-2.7,10.4
		c-0.3,1.3-0.7,2.5-1,3.8c0-0.1-0.1-0.2-0.1-0.3c-1.2-4.6-2.5-9.2-3.7-13.8c-0.1-0.2-0.1-0.3-0.4-0.3c-1.9,0-3.9,0-5.8,0H332v21.2h4
		L335.9,263.1L335.9,263.1z M314.3,270.3h8.4v9.2h4.3v-21.1h-4.3v8.3h-8.4v-8.3H310v21.2h4.2V270.3L314.3,270.3z M318.4,316.5h-1.3
		C316.5,316.5,318.1,316.6,318.4,316.5z M289.5,279.6c0.2,0,0.3-0.1,0.3-0.2c0.5-1.5,1-2.9,1.6-4.4c0.1-0.2,0.1-0.2,0.3-0.2
		c2.6,0,5.3,0,7.9,0c0.2,0,0.3,0.1,0.4,0.2c0.5,1.5,1.1,2.9,1.7,4.4c0.1,0.2,0.1,0.2,0.3,0.2c1.4,0,2.8,0,4.2,0h0.2
		c0-0.1-0.1-0.2-0.1-0.3c-2.8-6.9-5.5-13.8-8.3-20.7c-0.1-0.2-0.2-0.3-0.4-0.2c-1.3,0-2.7,0-4,0c-0.2,0-0.3,0.1-0.4,0.2
		c-2.7,6.9-5.3,13.7-8,20.6c0,0.1-0.1,0.2-0.1,0.4h0.3C286.7,279.6,288.1,279.6,289.5,279.6L289.5,279.6z M295.6,263.3
		c1,2.6,1.9,5.2,2.9,7.9h-5.8C293.7,268.5,294.6,266,295.6,263.3L295.6,263.3z M270.2,270.8c0.7,0,1.4,0,2,0c1,0,1.8,0.5,2.4,1.2
		c0.2,0.2,0.4,0.5,0.6,0.8c1.5,2.2,3,4.4,4.5,6.6c0.1,0.2,0.2,0.2,0.4,0.2c1.5,0,3,0,4.5,0h0.3c-0.2-0.3-0.4-0.6-0.6-0.9
		c-1.2-1.9-2.4-3.7-3.5-5.5c-0.8-1.2-1.8-2.1-3-2.8c0,0-0.1-0.1-0.1-0.1c0.4-0.1,0.7-0.1,1-0.2c1.4-0.4,2.7-1,3.5-2.2
		c1.1-1.7,1.3-3.6,0.7-5.5c-0.6-2-2-3.2-4-3.6c-1.2-0.2-2.4-0.3-3.5-0.3c-3.1,0-6.1,0-9.2,0c-0.1,0-0.2,0-0.2,0v21.2h4.3
		L270.2,270.8L270.2,270.8z M270.2,262.2c0-0.2,0.1-0.3,0.3-0.3c1.9,0,3.8,0,5.7,0c0.6,0,1.2,0.1,1.7,0.5c0.8,0.6,1.1,1.4,1,2.4
		c-0.1,1.5-1,2.3-2.4,2.4c-1.7,0.1-3.3,0.1-5,0.1c-0.4,0-0.8,0-1.2,0c0-0.1,0-0.2,0-0.2C270.2,265.5,270.2,263.8,270.2,262.2
		L270.2,262.2z M248.8,270.8c0.7,0,1.4,0,2.1,0c1,0,1.8,0.5,2.4,1.3c0.3,0.4,0.6,0.7,0.8,1.1c1.4,2.1,2.8,4.1,4.2,6.2
		c0.1,0.1,0.2,0.2,0.4,0.2c1.5,0,3.1,0,4.6,0c0.1,0,0.2,0,0.3,0c-0.2-0.3-0.4-0.6-0.6-1c-1.2-1.8-2.3-3.6-3.5-5.4
		c-0.8-1.2-1.8-2.1-3-2.9c0,0-0.1-0.1-0.1-0.1c0.4-0.1,0.7-0.1,1-0.2c1.4-0.4,2.7-1,3.5-2.3c1.1-1.7,1.3-3.6,0.7-5.5
		c-0.6-2-2-3.2-4-3.6c-1.2-0.2-2.4-0.3-3.6-0.3c-3.1,0-6.1,0-9.1,0h-0.2v21.2h4.2L248.8,270.8L248.8,270.8z M248.8,261.9h0.3
		c1.9,0,3.7,0,5.6,0c0.6,0,1.2,0.1,1.8,0.5c0.8,0.6,1.1,1.4,1,2.4c-0.1,1.5-1,2.3-2.4,2.4c-1.8,0.1-3.6,0.1-5.4,0.1
		c-0.3,0-0.5,0-0.8,0L248.8,261.9L248.8,261.9z M245.9,293.4l-3.2-1.6l-1.5,2.9l3.2,1.6L245.9,293.4L245.9,293.4z M236.7,296.3
		l3.2,1.7l1.5-2.8l-3.2-1.7L236.7,296.3L236.7,296.3z M78.9,293.4l-3.2-1.6l-1.5,2.9l3.2,1.6L78.9,293.4L78.9,293.4z M69.7,296.3
		l3.2,1.7l1.5-2.8l-3.2-1.7L69.7,296.3z M240.9,276h-11.8v-5.8h10.6v-3.6h-10.6v-4.7h11.4v-3.5h-15.7v21.2h16.1L240.9,276L240.9,276
		z M227,298.8c-0.3-2.6-0.6-4.6-0.8-6.1c-0.3,0.6-0.6,1.2-0.9,1.9c-0.3,0.7-0.6,1.3-0.9,1.9c0.2,1.7,0.4,3.3,0.6,4.9
		c0.3,2.7,0.6,5.2,0.8,7.6c0.2,2.5,0.3,4.4,0.3,5.7c0,0.2,0,0.5-0.1,1c0,0.5-0.1,0.9-0.1,1.3l0.4,0.2c0.7-1.1,1.1-2,1.3-2.5
		c0.4-1,0.6-2,0.6-3c0-1.3-0.1-3.3-0.4-5.9C227.5,303.7,227.3,301.4,227,298.8L227,298.8z M220.1,297.8c0.1-0.4,0.3-0.9,0.4-1.7
		c0.1-0.8,0.2-1.5,0.2-2.1c-0.7-0.3-1.3-0.5-2-0.8c-0.9-0.4-1.3-1-1.3-1.7l-0.3-0.2c-0.3,0.7-0.6,1.5-0.7,2.3
		c-0.2,0.8-0.2,1.6-0.2,2.5l1,0.5l2.3,16.7h-34.2v-1.4c0-1.4-0.3-2.6-0.9-3.8c-0.5-1-1.3-2-2.4-3l-1.1,3.1c0.9,1,1.6,1.9,2,2.8
		c0.6,1.1,0.9,2.2,0.9,3.3c0,1.2-0.6,2.6-1.8,4c-1.2,1.5-2.6,2.7-4.2,3.7c-1.8,1.1-3.6,1.6-5.2,1.6c-0.8,0-1.6-0.1-2.6-0.3
		c-0.9-0.2-1.8-0.4-2.7-0.5l-0.3,0.8c0.9,0.4,1.9,0.7,2.8,1.1c1.1,0.4,2.1,0.7,2.9,0.9c1,0.3,2,0.4,2.9,0.4c1,0,2.2-0.5,3.8-1.4
		c1.6-1,2.9-2.1,4-3.5c1.2-1.5,1.9-3,1.9-4.5h36.2v-3.9l-2.3-15.4L220.1,297.8L220.1,297.8z M210.6,276h-11.9v-5.8h10.7v-3.6h-10.7
		v-4.7h11.5v-3.6h-15.8v21.3h16.2L210.6,276L210.6,276z M173.2,275.1c0.6,2.2,2.1,3.6,4.2,4.4c1,0.4,2.1,0.5,3.2,0.5
		c1.4,0.1,2.8,0,4.2-0.3c2.6-0.7,4.4-2.5,4.8-5.3c0.2-1.5,0.2-3,0.2-4.5c0-3.8,0-7.5,0-11.3v-0.3h-4.3v0.3c0,3.9,0,7.8,0,11.6
		c0,1.1-0.1,2.1-0.1,3.2c-0.1,1.3-0.9,2.2-2.1,2.6c-1,0.3-2,0.3-3,0.1c-1.6-0.3-2.7-1.3-2.9-2.9c-0.1-0.6-0.1-1.3-0.1-1.9
		c0-4.2,0-8.5,0-12.7v-0.3h-4.3v0.3c0,1.7,0,3.4,0,5.1c0,2.6,0,5.3,0.1,7.9C172.8,272.8,172.9,274,173.2,275.1L173.2,275.1z
		 M171.7,313h-1.2c-0.6-0.1-1.6-0.9-3.2-2.3c-2-1.8-3.5-3.1-4.4-3.7c-1.8-1.3-3.4-2-4.7-2s-2.5,0.4-3.4,1.3
		c-0.6,0.6-1.1,1.4-1.5,2.3c0.7-0.1,1.4-0.1,2-0.1c1.1,0,2.2,0.2,3.2,0.5c0.9,0.3,2,0.9,3.1,1.6c0.9,0.6,2,1.4,3.4,2.4l-38.3,0.1
		c0-0.9-0.4-2.1-1.1-3.6c-0.5-1.1-1.3-2.3-2.2-3.7c-0.9,0.2-1.8,0.7-2.9,1.5c-1.2,0.9-2.2,1.9-2.9,3c-0.6,0.9-1.2,1.5-2,2
		c-0.9,0.6-2,0.9-3.2,0.9H82.1c-0.4,0-0.8-0.7-1.3-2c-0.3-0.9-0.6-2.3-0.9-4.1l-0.6-3.4c-0.2-0.8-0.3-1.6-0.5-2.4
		c-0.1-0.8-0.3-1.5-0.4-2.4c-0.4,0.5-0.7,0.9-1,1.4c-0.3,0.5-0.4,1-0.4,1.5c0,0.1,0,0.4,0.1,0.8c0.1,0.5,0.1,0.7,0.2,0.8
		c-2.2,1-4,2.2-5.5,3.6c-1.5,1.4-2.2,2.6-2.2,3.8c0,0.3,0.5,0.6,1.5,0.8c1,0.2,2.3,0.3,3.8,0.3c0.7,0,1.3-0.2,1.9-0.6
		c0.6-0.4,1.1-1,1.5-1.7c0.3,1.9,0.8,3.4,1.3,4.6c0.7,1.6,1.6,2.4,2.5,2.4h30.4c1.5,0,2.7-0.2,3.5-0.5c0.8-0.4,1.6-1,2.3-1.9
		c1,0.8,2.1,1.4,3.3,1.9c1.1,0.4,2.1,0.6,3,0.6h2l45-0.1L171.7,313L171.7,313z M75.8,309c-0.6,0-1.2,0-1.5-0.1
		c-0.4-0.1-0.7-0.2-1-0.3c0.4-0.7,1-1.3,1.7-1.7c0.7-0.4,1.6-0.9,2.7-1.3l0.4,2.1C77.4,308.6,76.6,309,75.8,309z M124.3,312.9
		c-0.8-0.1-1.6-0.3-2.4-0.8c-0.9-0.4-1.5-0.9-2-1.4c0.4-0.6,0.7-1.1,1-1.4c0.4-0.4,1-0.7,1.6-0.9c0.5,0.7,0.9,1.3,1.2,1.9
		c0.3,0.7,0.6,1.5,0.8,2.2L124.3,312.9L124.3,312.9z M154.2,279c1.3,0.6,2.7,0.9,4.1,1c1.8,0.1,3.6-0.1,5.3-0.8c0.2-0.1,0.3,0,0.4,0
		c0.8,0.6,1.6,1.1,2.5,1.6c0.6,0.4,1.3,0.7,2.1,0.9c0.5-1,1.1-2,1.6-3c-1.2-0.5-2.4-1-3.4-1.8c0.1-0.1,0.2-0.2,0.2-0.3
		c0.6-0.7,1-1.4,1.4-2.2c0.6-1.2,0.8-2.5,0.9-3.9c0.2-2.1,0.1-4.1-0.6-6.1c-0.9-2.7-2.6-4.6-5.2-5.7c-2.5-1-5-1-7.5-0.4
		c-2.8,0.7-4.8,2.3-6.1,4.9c-0.6,1.3-1,2.7-1.1,4.1c-0.2,2.1-0.1,4.2,0.6,6.2C150.3,276.1,151.8,277.9,154.2,279L154.2,279z
		 M153.8,265.2c0.9-2.5,3.1-3.9,6-3.6c2.4,0.2,4.2,1.7,4.9,4.2c0.6,2.3,0.6,4.6-0.2,6.9c-0.2,0.6-0.6,1.2-1,1.8
		c-1.2-0.9-2.6-1.7-4.1-2.2c-0.4,0.8-0.8,1.6-1.2,2.4c0.9,0.5,1.8,0.9,2.6,1.3c0,0,0,0.1,0,0.1c-0.7,0.2-1.4,0.3-2.1,0.3
		c-2.4-0.1-4.2-1.8-4.9-4C153,270,152.9,267.6,153.8,265.2L153.8,265.2z M145.5,258.3h-4.3v21.3h4.3V258.3z M123.9,265.7
		c0.1,0.1,0.1,0.2,0.2,0.3c2.8,4.5,5.5,8.9,8.2,13.4c0.1,0.2,0.2,0.2,0.4,0.2c1.2,0,2.5,0,3.8,0h0.3v-21.3h-4v14.1c0,0,0,0-0.1,0
		c-0.1-0.1-0.1-0.2-0.2-0.3c-2.8-4.5-5.6-9.1-8.4-13.6c-0.1-0.2-0.2-0.2-0.4-0.2c-1.2,0-2.4,0-3.7,0c-0.1,0-0.2,0-0.2,0v21.3h4
		L123.9,265.7L123.9,265.7z M115.7,258.3h-4.3v21.3h4.3V258.3z M108.4,276H97.7v-17.6h-4.3v21.1h15L108.4,276L108.4,276z
		 M71.5,272.9c0.7,2.5,2.1,4.5,4.4,5.9c1.3,0.8,2.7,1.1,4.2,1.2c1.7,0.1,3.3-0.1,4.8-0.8c2-0.9,3.3-2.5,4.2-4.5
		c0.2-0.5,0.4-1,0.6-1.6c-1.4-0.5-2.8-0.9-4.2-1.3c0,0.1-0.1,0.2-0.1,0.3c-0.2,0.9-0.6,1.7-1.1,2.5c-1.2,1.5-3.2,2.1-5.1,1.5
		c-1.7-0.6-2.7-1.8-3.2-3.5c-0.6-2.1-0.6-4.3-0.2-6.5c0.2-1,0.5-1.9,1.1-2.7c1.1-1.4,2.6-1.9,4.3-1.8c1.8,0.1,3.4,1.2,4,3
		c0.1,0.2,0.1,0.4,0.2,0.6c1.4-0.3,2.8-0.7,4.3-1c-0.1-0.2-0.1-0.4-0.2-0.6c-0.8-2.6-2.6-4.4-5.2-5.2c-1.8-0.6-3.6-0.6-5.4-0.3
		c-1.7,0.3-3.1,1-4.4,2.1c-2,1.8-2.9,4-3.2,6.6c-0.1,0.5-0.1,1-0.2,1.6v1.5c0,0.1,0,0.2,0.1,0.2C71.2,271.1,71.2,272,71.5,272.9
		L71.5,272.9z"/>
</g>
<rect x="462.9" y="200.1" class="st1" width="270.8" height="4.3"/>
<text transform="matrix(1 0 0 1 462.11 117.1)" class="st0 st2 st3">Dr.ZIOUA </text>
<text transform="matrix(1 0 0 1 736.49 117.1)" class="st0 st4 st3">Sami</text>
<g>
	<path class="st1" d="M478.1,133.6c1.8,0.9,3.1,2.2,4,3.8c1,1.7,1.4,3.6,1.4,5.8s-0.5,4.1-1.4,5.8c-1,1.6-2.3,2.9-4,3.8
		c-1.8,0.9-3.8,1.3-6.1,1.3h-7.1v-21.8h7.1C474.4,132.3,476.4,132.7,478.1,133.6L478.1,133.6z M477.9,149.1c1.4-1.4,2-3.3,2-5.8
		s-0.7-4.5-2-5.9s-3.3-2.1-5.9-2.1h-3.5v16h3.5C474.6,151.2,476.5,150.5,477.9,149.1z"/>
	<path class="st1" d="M487.4,133.9c-0.4-0.4-0.7-1-0.7-1.6s0.2-1.2,0.7-1.6s1-0.7,1.6-0.7s1.2,0.2,1.6,0.7s0.7,1,0.7,1.6
		s-0.2,1.2-0.7,1.6s-1,0.7-1.6,0.7S487.8,134.3,487.4,133.9z M490.7,136.8v17.3h-3.6v-17.3H490.7z"/>
	<path class="st1" d="M501.1,137.3c0.9-0.5,1.9-0.7,3.1-0.7v3.7h-0.9c-1.4,0-2.5,0.4-3.2,1.1s-1.1,1.9-1.1,3.7v9.1h-3.6v-17.3h3.6
		v2.5C499.5,138.4,500.2,137.8,501.1,137.3L501.1,137.3z"/>
	<path class="st1" d="M523.3,146.8H510c0.1,1.4,0.6,2.5,1.5,3.3c0.9,0.8,2,1.3,3.4,1.3c1.9,0,3.3-0.8,4.1-2.4h3.9
		c-0.5,1.6-1.5,2.9-2.8,3.9c-1.4,1-3.1,1.5-5.1,1.5c-1.7,0-3.1-0.4-4.5-1.1c-1.3-0.7-2.3-1.8-3.1-3.1s-1.1-2.9-1.1-4.7
		s0.4-3.4,1.1-4.7c0.7-1.4,1.7-2.4,3-3.1s2.8-1.1,4.5-1.1s3.1,0.4,4.4,1.1c1.3,0.7,2.3,1.7,3,3c0.7,1.3,1.1,2.8,1.1,4.4
		C523.4,145.7,523.3,146.3,523.3,146.8L523.3,146.8z M519.7,143.9c0-1.3-0.5-2.4-1.4-3.2c-0.9-0.8-2.1-1.2-3.4-1.2
		c-1.2,0-2.3,0.4-3.2,1.2s-1.4,1.9-1.6,3.2L519.7,143.9L519.7,143.9z"/>
	<path class="st1" d="M526.8,140.8c0.7-1.4,1.7-2.4,3-3.1c1.3-0.7,2.7-1.1,4.4-1.1c2.1,0,3.8,0.5,5.2,1.5c1.4,1,2.3,2.4,2.8,4.3
		h-3.9c-0.3-0.9-0.8-1.5-1.5-2s-1.6-0.7-2.6-0.7c-1.5,0-2.6,0.5-3.5,1.6c-0.9,1-1.3,2.5-1.3,4.4s0.4,3.3,1.3,4.4
		c0.9,1.1,2,1.6,3.5,1.6c2.1,0,3.5-0.9,4.1-2.7h3.9c-0.5,1.8-1.4,3.2-2.8,4.2c-1.4,1-3.1,1.6-5.2,1.6c-1.7,0-3.1-0.4-4.4-1.1
		c-1.3-0.7-2.3-1.8-3-3.1s-1.1-2.9-1.1-4.7S526.1,142.1,526.8,140.8L526.8,140.8z"/>
	<path class="st1" d="M549.9,139.7v9.6c0,0.6,0.2,1.1,0.5,1.4c0.3,0.3,0.8,0.4,1.6,0.4h2.2v3h-2.8c-1.6,0-2.8-0.4-3.7-1.1
		c-0.9-0.8-1.3-2-1.3-3.7v-9.6h-2v-2.9h2v-4.3h3.6v4.3h4.2v2.9L549.9,139.7L549.9,139.7z"/>
	<path class="st1" d="M573.2,146.8H560c0.1,1.4,0.6,2.5,1.5,3.3s2,1.3,3.4,1.3c1.9,0,3.3-0.8,4.1-2.4h3.9c-0.5,1.6-1.5,2.9-2.8,3.9
		c-1.4,1-3.1,1.5-5.1,1.5c-1.7,0-3.1-0.4-4.5-1.1c-1.3-0.7-2.3-1.8-3.1-3.1s-1.1-2.9-1.1-4.7s0.4-3.4,1.1-4.7c0.7-1.4,1.7-2.4,3-3.1
		s2.8-1.1,4.5-1.1s3.1,0.4,4.4,1.1c1.3,0.7,2.3,1.7,3,3c0.7,1.3,1.1,2.8,1.1,4.4C573.3,145.7,573.2,146.3,573.2,146.8L573.2,146.8z
		 M569.6,143.9c0-1.3-0.5-2.4-1.4-3.2c-0.9-0.8-2.1-1.2-3.4-1.2c-1.2,0-2.3,0.4-3.2,1.2s-1.4,1.9-1.6,3.2L569.6,143.9L569.6,143.9z"
		/>
	<path class="st1" d="M592.5,136.8v17.3h-3.6v-2c-0.6,0.7-1.3,1.3-2.2,1.7c-0.9,0.4-1.9,0.6-2.9,0.6c-1.4,0-2.6-0.3-3.7-0.9
		c-1.1-0.6-1.9-1.4-2.5-2.5c-0.6-1.1-0.9-2.4-0.9-4v-10.2h3.5v9.6c0,1.6,0.4,2.7,1.2,3.6c0.8,0.8,1.8,1.2,3.2,1.2s2.4-0.4,3.2-1.2
		s1.2-2,1.2-3.6v-9.6H592.5z"/>
	<path class="st1" d="M602.9,137.3c0.9-0.5,1.9-0.7,3.1-0.7v3.7h-0.9c-1.4,0-2.5,0.4-3.2,1.1s-1.1,1.9-1.1,3.7v9.1h-3.6v-17.3h3.6
		v2.5C601.3,138.4,602,137.8,602.9,137.3L602.9,137.3z"/>
	<path class="st1" d="M633.2,138.6c-0.6-1.1-1.3-1.9-2.4-2.5c-1-0.6-2.2-0.8-3.5-0.8c-1.5,0-2.7,0.3-3.9,1s-2,1.6-2.7,2.8
		c-0.6,1.2-1,2.6-1,4.1s0.3,3,1,4.2s1.5,2.1,2.7,2.8s2.4,1,3.9,1c2,0,3.5-0.5,4.7-1.6s2-2.6,2.2-4.4h-8.2v-2.9h12v2.8
		c-0.2,1.7-0.8,3.3-1.8,4.7c-1,1.4-2.2,2.6-3.8,3.4s-3.3,1.3-5.2,1.3c-2,0-3.9-0.5-5.6-1.4c-1.7-0.9-3-2.3-4-4
		c-1-1.7-1.5-3.6-1.5-5.8s0.5-4.1,1.5-5.8s2.3-3,4-4c1.7-0.9,3.6-1.4,5.6-1.4c2.3,0,4.4,0.6,6.2,1.7s3.1,2.8,3.9,4.9L633.2,138.6
		L633.2,138.6z"/>
	<path class="st1" d="M657.5,146.8h-13.2c0.1,1.4,0.6,2.5,1.5,3.3s2,1.3,3.4,1.3c1.9,0,3.3-0.8,4.1-2.4h3.9
		c-0.5,1.6-1.5,2.9-2.8,3.9c-1.4,1-3.1,1.5-5.1,1.5c-1.7,0-3.1-0.4-4.5-1.1c-1.3-0.7-2.3-1.8-3.1-3.1s-1.1-2.9-1.1-4.7
		s0.4-3.4,1.1-4.7c0.7-1.4,1.7-2.4,3-3.1s2.8-1.1,4.5-1.1s3.1,0.4,4.4,1.1c1.3,0.7,2.3,1.7,3,3c0.7,1.3,1.1,2.8,1.1,4.4
		C657.6,145.7,657.5,146.3,657.5,146.8L657.5,146.8z M653.9,143.9c0-1.3-0.5-2.4-1.4-3.2c-0.9-0.8-2.1-1.2-3.4-1.2
		c-1.2,0-2.3,0.4-3.2,1.2s-1.4,1.9-1.6,3.2L653.9,143.9L653.9,143.9z M652.3,132.2l-6.9,3.4v-2.6l6.9-3.8V132.2z"/>
	<path class="st1" d="M673.5,137.4c1.1,0.6,1.9,1.4,2.5,2.5c0.6,1.1,0.9,2.4,0.9,4v10.2h-3.5v-9.7c0-1.6-0.4-2.7-1.2-3.6
		c-0.8-0.8-1.8-1.2-3.2-1.2s-2.4,0.4-3.2,1.2s-1.2,2-1.2,3.6v9.7h-3.6v-17.3h3.6v2c0.6-0.7,1.3-1.3,2.2-1.7c0.9-0.4,1.9-0.6,2.9-0.6
		C671.2,136.5,672.4,136.8,673.5,137.4L673.5,137.4z"/>
	<path class="st1" d="M697.2,146.8H684c0.1,1.4,0.6,2.5,1.5,3.3s2,1.3,3.4,1.3c1.9,0,3.3-0.8,4.1-2.4h3.9c-0.5,1.6-1.5,2.9-2.8,3.9
		c-1.4,1-3.1,1.5-5.1,1.5c-1.7,0-3.1-0.4-4.5-1.1c-1.3-0.7-2.3-1.8-3.1-3.1s-1.1-2.9-1.1-4.7s0.4-3.4,1.1-4.7c0.7-1.4,1.7-2.4,3-3.1
		s2.8-1.1,4.5-1.1s3.1,0.4,4.4,1.1c1.3,0.7,2.3,1.7,3,3c0.7,1.3,1.1,2.8,1.1,4.4C697.3,145.7,697.3,146.3,697.2,146.8L697.2,146.8z
		 M693.6,143.9c0-1.3-0.5-2.4-1.4-3.2c-0.9-0.8-2.1-1.2-3.4-1.2c-1.2,0-2.3,0.4-3.2,1.2s-1.4,1.9-1.6,3.2L693.6,143.9L693.6,143.9z
		 M692.1,132.2l-6.9,3.4v-2.6l6.9-3.8V132.2z"/>
	<path class="st1" d="M706.5,137.3c0.9-0.5,1.9-0.7,3.1-0.7v3.7h-0.9c-1.4,0-2.5,0.4-3.2,1.1s-1.1,1.9-1.1,3.7v9.1h-3.6v-17.3h3.6
		v2.5C705,138.4,705.7,137.8,706.5,137.3L706.5,137.3z"/>
	<path class="st1" d="M712.8,140.8c0.7-1.3,1.7-2.4,3-3.1c1.2-0.7,2.6-1.1,4.1-1.1c1.4,0,2.5,0.3,3.6,0.8s1.8,1.2,2.4,2v-2.5h3.6
		v17.3h-3.6v-2.6c-0.6,0.8-1.4,1.5-2.5,2s-2.2,0.8-3.6,0.8c-1.5,0-2.8-0.4-4.1-1.1c-1.2-0.8-2.2-1.8-2.9-3.2
		c-0.7-1.4-1.1-2.9-1.1-4.7S712.1,142.1,712.8,140.8L712.8,140.8z M725.2,142.3c-0.5-0.9-1.1-1.6-1.9-2c-0.8-0.5-1.7-0.7-2.6-0.7
		s-1.8,0.2-2.6,0.7s-1.4,1.1-1.9,2s-0.7,1.9-0.7,3.1s0.2,2.2,0.7,3.1s1.1,1.6,2,2.1s1.7,0.7,2.6,0.7s1.8-0.2,2.6-0.7s1.4-1.1,1.9-2
		s0.7-1.9,0.7-3.1S725.7,143.2,725.2,142.3L725.2,142.3z"/>
	<path class="st1" d="M737.8,130.9v23.2h-3.6v-23.2H737.8z"/>
</g>
<g>
	<circle class="st5" cx="493" cy="252.1" r="32.7"/>
	<path class="st0" d="M525.8,252.3c0-18.1-14.6-32.7-32.7-32.7s-32.7,14.6-32.7,32.7c0,16.3,12,29.9,27.6,32.3v-22.9h-8.3v-9.5h8.3
		v-7.2c0-8.2,4.9-12.7,12.4-12.7c3.6,0,7.3,0.6,7.3,0.6v8.1h-4.1c-4.1,0-5.3,2.5-5.3,5.1v6.1h9.1l-1.5,9.5h-7.6v22.9
		C513.8,282.2,525.8,268.7,525.8,252.3L525.8,252.3z"/>
</g>
<g>
	<circle class="st5" cx="577.9" cy="252.1" r="32.7"/>
	<path class="st6" d="M577.9,219.4c18.1,0,32.7,14.7,32.7,32.7s-14.7,32.7-32.7,32.7s-32.7-14.7-32.7-32.7S559.8,219.4,577.9,219.4
		L577.9,219.4z M577.9,231.7c-5.5,0-6.2,0-8.4,0.1c-2.2,0.1-3.7,0.4-5,0.9c-1.3,0.5-2.5,1.2-3.6,2.4s-1.8,2.3-2.4,3.6
		c-0.5,1.3-0.8,2.8-1,5c-0.1,2.2-0.1,2.9-0.1,8.4c0,5.6,0,6.2,0.1,8.4s0.5,3.7,1,5c0.5,1.3,1.2,2.5,2.4,3.6c1.1,1.1,2.3,1.8,3.6,2.4
		c1.3,0.5,2.8,0.9,5,1c2.2,0.1,2.9,0.1,8.4,0.1s6.2,0,8.4-0.1s3.7-0.5,5-1c1.3-0.5,2.5-1.2,3.6-2.4c1.1-1.1,1.8-2.3,2.4-3.6
		c0.5-1.3,0.8-2.8,1-5c0.1-2.2,0.1-2.9,0.1-8.4s0-6.2-0.1-8.4s-0.5-3.7-1-5c-0.5-1.3-1.2-2.5-2.4-3.6c-1.1-1.1-2.3-1.8-3.6-2.4
		c-1.3-0.5-2.8-0.9-5-0.9C584.1,231.7,583.4,231.7,577.9,231.7L577.9,231.7z M577.9,235.4c5.5,0,6.1,0,8.3,0.1
		c2,0.1,3.1,0.4,3.8,0.7c1,0.4,1.6,0.8,2.3,1.5c0.7,0.7,1.2,1.4,1.5,2.4c0.3,0.7,0.6,1.8,0.7,3.8c0.1,2.2,0.1,2.8,0.1,8.3
		c0,5.5,0,6.1-0.1,8.3c-0.1,2-0.4,3.1-0.7,3.8c-0.4,1-0.8,1.6-1.5,2.4c-0.7,0.7-1.4,1.2-2.3,1.5c-0.7,0.3-1.8,0.6-3.8,0.7
		c-2.2,0.1-2.8,0.1-8.3,0.1s-6.1,0-8.3-0.1c-2-0.1-3.1-0.4-3.8-0.7c-1-0.4-1.6-0.8-2.3-1.5c-0.7-0.7-1.2-1.4-1.5-2.4
		c-0.3-0.7-0.6-1.8-0.7-3.8c-0.1-2.2-0.1-2.8-0.1-8.3s0-6.1,0.1-8.3c0.1-2,0.4-3.1,0.7-3.8c0.4-0.9,0.8-1.6,1.5-2.4
		c0.7-0.7,1.4-1.2,2.3-1.5c0.7-0.3,1.8-0.6,3.8-0.7C571.8,235.4,572.4,235.4,577.9,235.4L577.9,235.4z M577.9,241.6
		c-5.8,0-10.5,4.7-10.5,10.5s4.7,10.5,10.5,10.5s10.5-4.7,10.5-10.5S583.7,241.6,577.9,241.6L577.9,241.6L577.9,241.6z M577.9,258.9
		c-3.8,0-6.8-3.1-6.8-6.8s3-6.8,6.8-6.8s6.8,3.1,6.8,6.8S581.7,258.9,577.9,258.9z M591.3,241.2c0,1.4-1.1,2.4-2.5,2.4
		s-2.5-1.1-2.5-2.4s1.1-2.4,2.5-2.4S591.3,239.9,591.3,241.2z"/>
</g>
<g>
	<circle class="st5" cx="664.8" cy="252.1" r="32.7"/>
	<g id="OUTLINE_copy_2">
		<g>
			<polygon class="st0" points="660.3,258.8 671.4,252.1 660.3,245.4 			"/>
			<path class="st0" d="M664.8,219.4c-18.1,0-32.7,14.6-32.7,32.7s14.7,32.7,32.7,32.7s32.7-14.6,32.7-32.7S682.8,219.4,664.8,219.4
				L664.8,219.4z M682.5,253.6c0,3.1-0.4,6.1-0.4,6.1s-0.3,2.6-1.4,3.8c-1.3,1.5-2.9,1.5-3.6,1.6c-5,0.4-12.4,0.4-12.4,0.4
				s-9.2-0.1-12.1-0.4c-0.8-0.2-2.6-0.1-3.9-1.6c-1.1-1.1-1.4-3.8-1.4-3.8s-0.4-3.1-0.4-6.1v-2.9c0-3.1,0.4-6.1,0.4-6.1
				s0.3-2.6,1.4-3.8c1.3-1.5,2.9-1.5,3.6-1.6c5-0.4,12.4-0.4,12.4-0.4h0c0,0,7.5,0,12.4,0.4c0.7,0.1,2.2,0.1,3.6,1.6
				c1.1,1.1,1.4,3.8,1.4,3.8s0.4,3.1,0.4,6.1V253.6z"/>
		</g>
	</g>
</g>
<g>
	<circle class="st5" cx="751.6" cy="252.1" r="32.7"/>
	<path class="st6" d="M751.6,219.4c-18.1,0-32.7,14.6-32.7,32.7s14.6,32.7,32.7,32.7s32.7-14.6,32.7-32.7S769.7,219.4,751.6,219.4z
		 M741.4,270.5h-8.2v-28.6h8.2V270.5z M737.3,239.9c-2.3,0-4.1-1.8-4.1-4.1s1.8-4.1,4.1-4.1s4.1,1.8,4.1,4.1
		S739.5,239.9,737.3,239.9z M770,270.5h-8.2v-16.4c0-2.7-1.5-4.1-4.1-4.1s-4.1,1.4-4.1,4.1v16.4h-8.2v-28.6h8.2v4.1
		c0.5-2,1.5-4.1,7.2-4.1c8.1,0,9.2,6.1,9.2,14.3V270.5z"/>
</g>
<g>
	<path class="st0" d="M964.9,319.9L964.9,319.9c-19.8,0-35.8-16-35.8-35.8V68.8c0-19.8,16-35.8,35.8-35.8l0,0
		c19.8,0,35.8,16,35.8,35.8v215.3C1000.7,303.8,984.7,319.8,964.9,319.9L964.9,319.9z"/>
	<path class="st5" d="M960.6,71.6c1.9-2.2-0.2-5.2-1.5-7.2c-0.7-1.2-1.8-2.8-3.3-3c-1.4-0.2-2.7,1.4-3.7,2.3
		c-2.3,2.1-3.5,4.7-3.7,7.8c0,0.3,0,0.9,0,0.4c0.2,1.8,0.4,3.6,1.1,5.3c0.6,1.6,1.4,3.2,2.4,4.6c2,3.1,4.4,6,7.2,8.5
		c2.7,2.4,5.8,4.6,9.4,5.3c3.4,0.7,6.7,0,9.4-2.2c1-0.8,2.8-1.9,2.8-3.3c0.1-1.4-1-2.5-2-3.3c-2-1.8-5-4.8-7.7-2.6
		c-1.1,0.9-2.2,2.5-3.6,2.7c-1.4,0.2-2.8-0.8-3.8-1.6c-2.3-1.9-4.5-4.4-5.9-7.1c-0.6-1.2-1.1-2.7-0.2-3.9
		C958.3,73.2,959.7,72.7,960.6,71.6L960.6,71.6z"/>
	<path class="st5" d="M978.3,268c0-7.5-6.1-13.7-13.7-13.7s-13.7,6.1-13.7,13.7c0,2.8,0.9,5.5,2.3,7.6l0,0v0l0,0l11.3,17l11.4-17h0
		C977.4,273.5,978.3,270.9,978.3,268z M964.6,275.6c-4.2,0-7.6-3.4-7.6-7.6s3.4-7.6,7.6-7.6s7.6,3.4,7.6,7.6
		S968.8,275.6,964.6,275.6z"/>
	<path class="st7" d="M974.5,165.3c-1.4,0.6-2.8,1.2-4.2,1.9c-2-4.7-4-9.4-6.1-14.1c-2.6,2.5-5.2,4.9-7.8,7.4v-31.4
		c7.6,7.1,15.2,14.2,22.8,21.3c-3.7,0.3-7.4,0.6-11,1C970.3,156.1,972.4,160.7,974.5,165.3L974.5,165.3z"/>
	<g>
		<polygon class="st5" points="964.6,213.4 948,200.6 981.2,200.6 		"/>
		<polygon class="st5" points="958.8,212.3 945.4,223.3 945.4,202 		"/>
		<polygon class="st5" points="961,214 964.6,216.8 968.3,213.9 981.5,224.8 947.8,224.8 		"/>
		<polygon class="st5" points="970.5,212.2 983.8,202 983.8,223.3 		"/>
	</g>
	<text transform="matrix(1 0 0 1 1031.51 153.52)" class="st8 st9">www.cliniquerrahma.ma</text>
	<text transform="matrix(1 0 0 1 1031.51 219.35)" class="st8 st9">s.zioua@cliniquerrahma.ma</text>
	<text transform="matrix(1 0 0 1 1031.51 284.5)" class="st8 st9">Lot Zineb El Masmoudi, Targa Marrakech</text>
  <a xlink:href="http://localhost">
	<text transform="matrix(1 0 0 1 1031.51 91.55)" class="st8 st9">+212 673 142 929</text>
  </a>
  <a xlink:href= "http://example.com/link/" xlink:title="The link leads to an example page that is of little interest">
     <text x="10" y="25" >An example link.</text>
   </a>
</g>
</svg>
